<?xml version="1.0" encoding="iso-8859-1"?>
<!-- Generator: Adobe Illustrator 21.0.0, SVG Export Plug-In . SVG Version: 6.00 Build 0)  -->
<svg xmlns="http://www.w3.org/2000/svg" xmlns:xlink="http://www.w3.org/1999/xlink" version="1.1" id="Capa_1" x="0px" y="0px" viewBox="0 0 512 512" style="enable-background:new 0 0 512 512;" xml:space="preserve" width="512" height="512">
<g>
	<g>
		<g>
			<g>
				<circle style="fill:#FF9500;" cx="256" cy="256" r="256"/>
			</g>
		</g>
	</g>
	<path style="fill:#FE6A16;" d="M512,256c0-25.081-3.623-49.312-10.346-72.217L388.548,70.677l-8.832,13.551l-27.987-27.987   l-54.451,14.436L112.348,420.975l84.029,84.028C215.509,509.568,235.469,512,256,512C397.385,512,512,397.385,512,256z"/>
	<g>
		<g>
			<polygon style="fill:#FFFFFF;" points="171.744,86.588 112.348,145.984 112.348,420.975 381.213,420.975 381.213,86.588    "/>
		</g>
		<g>
			<rect x="255.595" y="86.587" style="fill:#E9EDF5;" width="125.618" height="334.387"/>
		</g>
		<g>
			<polygon style="fill:#87C7FF;" points="171.745,145.984 171.757,86.588 112.36,145.985    "/>
		</g>
	</g>
	<g>
		<g>
			<circle style="fill:#2864F0;" cx="185.965" cy="209.98" r="49.15"/>
		</g>
		<g>
			<g>
				<circle style="fill:#DBEEFF;" cx="185.965" cy="200.095" r="21.122"/>
			</g>
			<g>
				<path style="fill:#DBEEFF;" d="M185.965,259.129c13.066,0,24.916-5.174,33.639-13.574      c-5.316-13.376-18.368-22.838-33.639-22.838s-28.322,9.461-33.639,22.838C161.049,253.955,172.899,259.129,185.965,259.129z"/>
			</g>
		</g>
	</g>
	<g>
		
			<rect x="139.781" y="299.55" transform="matrix(-1 -1.018238e-07 1.018238e-07 -1 493.5611 621.4355)" style="fill:#A3D4FF;" width="214" height="22.335"/>
	</g>
	<g>
		<rect x="255.595" y="299.55" style="fill:#87C7FF;" width="98.185" height="22.335"/>
	</g>
	<g>
		
			<rect x="139.781" y="340.884" transform="matrix(-1 -1.018238e-07 1.018238e-07 -1 493.5611 704.1022)" style="fill:#A3D4FF;" width="214" height="22.335"/>
	</g>
	<g>
		<rect x="255.595" y="340.884" style="fill:#87C7FF;" width="98.185" height="22.334"/>
	</g>
	<g>
		
			<rect x="225.06" y="86.588" transform="matrix(0.9812 -0.1928 0.1928 0.9812 -26.529 63.9976)" style="fill:#FFCE00;" width="180.94" height="163.413"/>
	</g>
	<g>
		<polygon style="fill:#FFA300;" points="388.548,70.677 318.69,84.404 318.69,250.942 420.057,231.023   "/>
	</g>
	<g>
		<path style="fill:#2864F0;" d="M318.642,171.525c-24.827,0-45.025-20.198-45.025-45.025h30c0,8.285,6.74,15.025,15.025,15.025    s15.025-6.74,15.025-15.025V86.737c0-8.285-6.74-15.025-15.025-15.025s-15.025,6.74-15.025,15.025h-30    c0-24.827,20.198-45.025,45.025-45.025s45.025,20.198,45.025,45.025V126.5C363.667,151.327,343.469,171.525,318.642,171.525z"/>
	</g>
	<g>
		<path style="fill:#27488F;" d="M318.69,41.713v30.001c8.263,0.027,14.977,6.754,14.977,15.023V126.5    c0,8.268-6.714,14.996-14.977,15.022v30.001c24.805-0.026,44.977-20.213,44.977-45.023V86.737    C363.667,61.927,343.495,41.74,318.69,41.713z"/>
	</g>
</g>















</svg>
